<svg width="50" height="50" viewBox="0 0 50 50" fill="none" xmlns="http://www.w3.org/2000/svg">
<path d="M46.6461 13.0626C44.4105 9.23228 41.3782 6.19978 37.5481 3.96445C33.7176 1.72901 29.5357 0.611572 24.9996 0.611572C20.4641 0.611572 16.2808 1.72935 12.4511 3.96445C8.6207 6.19966 5.58843 9.23228 3.35287 13.0626C1.11766 16.8929 0 21.0755 0 25.6105C0 31.058 1.58933 35.9566 4.76879 40.3074C7.94791 44.6586 12.0549 47.6694 17.0893 49.3402C17.6753 49.449 18.1091 49.3725 18.3912 49.1127C18.6734 48.8525 18.8143 48.5266 18.8143 48.1365C18.8143 48.0714 18.8087 47.4857 18.7979 46.3788C18.7867 45.2718 18.7815 44.3061 18.7815 43.4822L18.0328 43.6117C17.5554 43.6991 16.9532 43.7362 16.2261 43.7257C15.4994 43.7156 14.745 43.6394 13.9639 43.4978C13.1824 43.3574 12.4556 43.0319 11.7828 42.522C11.1104 42.012 10.633 41.3444 10.3508 40.5204L10.0253 39.7713C9.80837 39.2726 9.46679 38.7186 9.00013 38.1114C8.53348 37.5036 8.06158 37.0915 7.58422 36.8746L7.3563 36.7114C7.20444 36.603 7.06352 36.4722 6.9332 36.3205C6.803 36.1687 6.70552 36.0169 6.64042 35.8648C6.57521 35.7126 6.62925 35.5877 6.80312 35.4898C6.97698 35.3918 7.2912 35.3443 7.74714 35.3443L8.39792 35.4416C8.83197 35.5285 9.36885 35.7884 10.0093 36.2227C10.6493 36.6566 11.1755 37.2207 11.5879 37.9148C12.0872 38.8048 12.6889 39.483 13.3945 39.9496C14.0996 40.4163 14.8104 40.6492 15.5264 40.6492C16.2424 40.6492 16.8608 40.5949 17.3819 40.4869C17.9023 40.3784 18.3906 40.2153 18.8466 39.9984C19.0419 38.5438 19.5736 37.4264 20.4414 36.6453C19.2046 36.5153 18.0926 36.3196 17.1049 36.0593C16.1178 35.7986 15.0977 35.3757 14.0454 34.7892C12.9925 34.2035 12.1191 33.4762 11.4248 32.6086C10.7305 31.7405 10.1607 30.6008 9.71613 29.1906C9.27137 27.7798 9.04893 26.1524 9.04893 24.3079C9.04893 21.6816 9.9063 19.4468 11.6207 17.602C10.8176 15.6276 10.8934 13.4141 11.8484 10.962C12.4777 10.7664 13.411 10.9132 14.6478 11.4012C15.8849 11.8896 16.7906 12.3079 17.3659 12.6547C17.9412 13.0014 18.4022 13.2952 18.7494 13.5335C20.768 12.9695 22.8512 12.6874 24.9994 12.6874C27.1476 12.6874 29.2312 12.9695 31.2499 13.5335L32.4868 12.7526C33.3326 12.2316 34.3315 11.7541 35.481 11.3201C36.6311 10.8863 37.5106 10.7668 38.1185 10.9623C39.0947 13.4146 39.1817 15.6279 38.3784 17.6024C40.0927 19.4471 40.9504 21.6825 40.9504 24.3082C40.9504 26.1527 40.7271 27.7853 40.2831 29.2069C39.8384 30.6288 39.2637 31.7673 38.5586 32.6249C37.8528 33.4824 36.9737 34.204 35.9214 34.7895C34.8689 35.3755 33.8484 35.7985 32.8613 36.0592C31.8737 36.3198 30.7618 36.5157 29.525 36.6459C30.653 37.622 31.2171 39.1629 31.2171 41.2678V48.1356C31.2171 48.5257 31.3528 48.8515 31.6244 49.1118C31.8956 49.3716 32.324 49.4481 32.91 49.3392C37.9451 47.6686 42.0521 44.6576 45.2311 40.3065C48.4098 35.9556 49.9997 31.0571 49.9997 25.6096C49.9985 21.0752 48.8803 16.8929 46.6461 13.0626Z" fill="#8360C3"/>
</svg>
